<svg xmlns="http://www.w3.org/2000/svg" xmlns:xlink="http://www.w3.org/1999/xlink" width="248" height="29" viewBox="0 0 248 29">
  <defs>
    <clipPath id="clip-path">
      <path id="Clip_2" data-name="Clip 2" d="M0,0H45V23H0Z" transform="translate(0 0.5)" fill="none"/>
    </clipPath>
  </defs>
  <g id="Group_1" data-name="Group 1" transform="translate(-49 -36)">
    <text id="Chef_s_menu" data-name="Chef’s menu" transform="translate(118 60)" font-size="24" font-family="Futura-CondensedMedium, Futura" font-weight="500" letter-spacing="0.318em"><tspan x="0" y="0">CHEF’S MENU</tspan></text>
    <g id="logo-icon" transform="translate(49 38)">
      <g id="Group_3" data-name="Group 3" transform="translate(0 0.037)">
        <path id="Clip_2-2" data-name="Clip 2" d="M0,0H45V23H0Z" transform="translate(0 0.5)" fill="none"/>
        <g id="Group_3-2" data-name="Group 3" clip-path="url(#clip-path)">
          <path id="Fill_1" data-name="Fill 1" d="M43.875,22.412H1.125a1.125,1.125,0,1,1,0-2.25H2.981a.388.388,0,0,0-.006-.059.3.3,0,0,1,0-.079,19.674,19.674,0,0,1,18.4-17.284V1.125a1.125,1.125,0,1,1,2.25,0V2.741a19.709,19.709,0,0,1,16.364,10.6,19.518,19.518,0,0,1,2.041,6.613.48.48,0,0,1-.007.131c0,.024-.007.049-.009.075h1.86a1.125,1.125,0,0,1,0,2.25ZM22.474,4.937A17.431,17.431,0,0,0,5.225,20.162H39.785A17.433,17.433,0,0,0,22.5,4.937Z" transform="translate(0 1.088)"/>
        </g>
      </g>
      <path id="Fill_4" data-name="Fill 4" d="M.728.024A.563.563,0,1,0,.4,1.1,11.744,11.744,0,0,1,7.2,6.659a.562.562,0,1,0,.987-.54A12.88,12.88,0,0,0,.728.024" transform="translate(25.983 9.947)"/>
    </g>
  </g>
</svg>
